PathFileType	4	(X/Y/Z)	testStatic.trc	
DataRate	CameraRate	NumFrames	NumMarkers	Units	OrigDataRate	OrigDataStartFrame	OrigNumFrames
120	120	11	32	mm	120	146	11
Frame#	Time	RSHO			LSHO			C7			RASI			LASI			SACR			RTHAP			RTHAD			RTHLD			RLEPI			RMEPI			RTIAP			RTIAD			RMMAL			RLMAL			RHEEL			RP1MT			RP5MT			RTOE			LTHAP			LTHAD			LTHLD			LLEPI			LMEPI			LTIAP			LTIAD			LMMAL			LLMAL			LHEEL			LP1MT			LP5MT			LTOE			
		X1	Y1	Z1	X2	Y2	Z2	X3	Y3	Z3	X4	Y4	Z4	X5	Y5	Z5	X6	Y6	Z6	X7	Y7	Z7	X8	Y8	Z8	X9	Y9	Z9	X10	Y10	Z10	X11	Y11	Z11	X12	Y12	Z12	X13	Y13	Z13	X14	Y14	Z14	X15	Y15	Z15	X16	Y16	Z16	X17	Y17	Z17	X18	Y18	Z18	X19	Y19	Z19	X20	Y20	Z20	X21	Y21	Z21	X22	Y22	Z22	X23	Y23	Z23	X24	Y24	Z24	X25	Y25	Z25	X26	Y26	Z26	X27	Y27	Z27	X28	Y28	Z28	X29	Y29	Z29	X30	Y30	Z30	X31	Y31	Z31	X32	Y32	Z32	

1	0.00000	143.30994	1475.16650	179.29530	103.70288	1478.41650	-187.99210	62.87982	1536.70410	-6.09987	182.78033	1007.37537	145.75017	184.82819	1002.90607	-126.86186	0.00000	1039.18152	0.00000	197.93890	696.10724	111.67570	169.27246	598.42615	126.48125	99.97491	629.53815	186.12886	84.87537	518.42084	173.06770	104.74420	495.55692	60.93758	107.85962	353.64343	116.73735	94.30884	235.33723	124.58101	77.83197	109.28556	95.66179	39.12329	92.88147	178.69594	-9.62671	48.45849	132.70250	170.45233	36.31665	208.97597	187.81708	43.24534	85.36122	237.69067	53.90413	124.08971	198.39404	677.90942	-93.84778	173.36487	594.87518	-96.38059	107.86713	615.01556	-167.79327	95.36719	517.01752	-158.29970	98.29376	495.13455	-39.01997	104.52094	353.06479	-93.92726	93.82623	245.40771	-103.24184	65.89001	103.44357	-71.32133	40.92590	95.61630	-157.64481	-16.66711	53.97420	-111.75638	176.40125	33.00982	-185.10167	189.32831	42.48037	-65.84859	231.11011	47.82107	-93.99051	
2	0.00833	143.31604	1475.17041	179.31026	103.71045	1478.43579	-187.97760	62.87714	1536.70996	-6.08569	182.75977	1007.37390	145.74608	184.79913	1002.90680	-126.86085	-0.02710	1039.18201	0.00296	197.92218	696.11041	111.67445	169.25806	598.42639	126.48042	99.96118	629.53857	186.12764	84.86542	518.42139	173.06770	104.73566	495.55649	60.93718	107.85309	353.64310	116.73744	94.30554	235.33733	124.58144	77.83173	109.28611	95.66273	39.12250	92.88085	178.69682	-9.62695	48.45661	132.70302	170.45221	36.31683	208.97578	187.81659	43.24576	85.36107	237.68933	53.90528	124.08983	198.37335	677.91510	-93.85429	173.32416	594.86859	-96.40372	107.84656	615.01776	-167.79428	95.35095	517.01898	-158.29984	98.28387	495.13553	-39.02049	104.51355	353.06601	-93.92868	93.82129	245.40889	-103.24320	65.88995	103.44370	-71.32182	40.92383	95.61605	-157.64380	-16.66754	53.97354	-111.75616	176.40131	33.00940	-185.10164	189.32806	42.48072	-65.84891	231.11017	47.82194	-93.99122	
3	0.01667	143.32263	1475.17419	179.32530	103.71857	1478.45508	-187.96294	62.87494	1536.71582	-6.07146	182.73950	1007.37238	145.74205	184.77045	1002.90747	-126.85980	-0.05383	1039.18262	0.00597	197.90576	696.11346	111.67323	169.24390	598.42670	126.47966	99.94763	629.53900	186.12648	84.85565	518.42200	173.06773	104.72723	495.55603	60.93681	107.84662	353.64276	116.73753	94.30231	235.33740	124.58183	77.83154	109.28666	95.66365	39.12170	92.88023	178.69768	-9.62720	48.45473	132.70354	170.45215	36.31701	208.97560	187.81616	43.24617	85.36092	237.68799	53.90643	124.08995	198.35291	677.92072	-93.86078	173.28192	594.85999	-96.42796	107.82623	615.01996	-167.79523	95.33496	517.02051	-158.29994	98.27423	495.13654	-39.02097	104.50635	353.06720	-93.93007	93.81641	245.41006	-103.24454	65.88989	103.44383	-71.32230	40.92181	95.61581	-157.64285	-16.66797	53.97290	-111.75593	176.40137	33.00898	-185.10161	189.32782	42.48106	-65.84924	231.11023	47.82277	-93.99193	
4	0.02500	143.32959	1475.17786	179.34044	103.72723	1478.47437	-187.94810	62.87335	1536.72180	-6.05716	182.71960	1007.37079	145.73805	184.74207	1002.90814	-126.85872	-0.08020	1039.18323	0.00905	197.88953	696.11652	111.67201	169.23004	598.42700	126.47890	99.93427	629.53943	186.12532	84.84601	518.42255	173.06776	104.71899	495.55560	60.93645	107.84027	353.64243	116.73766	94.29907	235.33746	124.58226	77.83130	109.28719	95.66460	39.12091	92.87963	178.69853	-9.62738	48.45287	132.70406	170.45203	36.31719	208.97545	187.81573	43.24659	85.36076	237.68665	53.90758	124.09007	198.33270	677.92633	-93.86724	173.23834	594.84955	-96.45320	107.80615	615.02209	-167.79611	95.31915	517.02197	-158.30002	98.26471	495.13751	-39.02141	104.49927	353.06839	-93.93142	93.81165	245.41121	-103.24584	65.88983	103.44395	-71.32275	40.91992	95.61556	-157.64194	-16.66840	53.97229	-111.75568	176.40137	33.00856	-185.10159	189.32764	42.48139	-65.84956	231.11029	47.82357	-93.99264	
5	0.03333	143.33704	1475.18140	179.35564	103.73639	1478.49365	-187.93314	62.87225	1536.72766	-6.04282	182.70007	1007.36920	145.73415	184.71411	1002.90875	-126.85760	-0.10626	1039.18384	0.01219	197.87360	696.11945	111.67082	169.21649	598.42743	126.47816	99.92114	629.53979	186.12422	84.83661	518.42310	173.06783	104.71082	495.55518	60.93611	107.83405	353.64209	116.73781	94.29590	235.33752	124.58272	77.83105	109.28772	95.66551	39.12006	92.87903	178.69939	-9.62762	48.45101	132.70454	170.45197	36.31736	208.97527	187.81531	43.24699	85.36064	237.68542	53.90872	124.09019	198.31281	677.93182	-93.87368	173.19373	594.83740	-96.47929	107.78625	615.02429	-167.79697	95.30359	517.02344	-158.30006	98.25543	495.13846	-39.02180	104.49237	353.06958	-93.93274	93.80701	245.41235	-103.24712	65.88983	103.44406	-71.32320	40.91821	95.61533	-157.64108	-16.66876	53.97171	-111.75543	176.40143	33.00816	-185.10156	189.32745	42.48170	-65.84990	231.11035	47.82433	-93.99334	
6	0.04167	143.34485	1475.18506	179.37093	103.74609	1478.51294	-187.91800	62.87164	1536.73364	-6.02840	182.68097	1007.36749	145.73030	184.68640	1002.90936	-126.85644	-0.13190	1039.18445	0.01540	197.85785	696.12225	111.66966	169.20325	598.42786	126.47746	99.90820	629.54022	186.12315	84.82733	518.42365	173.06792	104.70282	495.55478	60.93581	107.82788	353.64172	116.73796	94.29279	235.33757	124.58315	77.83081	109.28825	95.66643	39.11926	92.87844	178.70024	-9.62781	48.44915	132.70506	170.45184	36.31754	208.97511	187.81494	43.24739	85.36049	237.68408	53.90985	124.09032	198.29315	677.93738	-93.88010	173.14813	594.82373	-96.50610	107.76666	615.02649	-167.79776	95.28821	517.02490	-158.30006	98.24640	495.13943	-39.02216	104.48560	353.07074	-93.93402	93.80243	245.41348	-103.24837	65.88983	103.44418	-71.32361	40.91656	95.61510	-157.64029	-16.66913	53.97116	-111.75517	176.40149	33.00775	-185.10156	189.32727	42.48201	-65.85023	231.11047	47.82505	-93.99405	
7	0.05000	143.35309	1475.18848	179.38628	103.75635	1478.53210	-187.90274	62.87158	1536.73950	-6.01393	182.66217	1007.36578	145.72652	184.65912	1002.90991	-126.85524	-0.15723	1039.18506	0.01868	197.84235	696.12506	111.66850	169.19031	598.42834	126.47679	99.89545	629.54059	186.12212	84.81824	518.42419	173.06801	104.69501	495.55435	60.93550	107.82184	353.64139	116.73811	94.28967	235.33760	124.58360	77.83057	109.28876	95.66731	39.11841	92.87785	178.70110	-9.62805	48.44731	132.70555	170.45172	36.31771	208.97493	187.81451	43.24779	85.36034	237.68274	53.91098	124.09044	198.27380	677.94281	-93.88649	173.10193	594.80865	-96.53348	107.74731	615.02869	-167.79852	95.27307	517.02637	-158.30003	98.23749	495.14038	-39.02248	104.47900	353.07190	-93.93526	93.79797	245.41460	-103.24960	65.88983	103.44427	-71.32402	40.91504	95.61488	-157.63954	-16.66949	53.97063	-111.75488	176.40155	33.00735	-185.10155	189.32709	42.48230	-65.85057	231.11060	47.82573	-93.99475	
8	0.05833	143.36169	1475.19189	179.40169	103.76703	1478.55127	-187.88733	62.87201	1536.74548	-5.99942	182.64374	1007.36401	145.72282	184.63214	1002.91040	-126.85401	-0.18219	1039.18579	0.02202	197.82709	696.12781	111.66737	169.17761	598.42883	126.47615	99.88293	629.54095	186.12114	84.80927	518.42468	173.06816	104.68732	495.55396	60.93520	107.81592	353.64102	116.73830	94.28668	235.33762	124.58406	77.83032	109.28926	95.66823	39.11761	92.87727	178.70192	-9.62823	48.44547	132.70604	170.45166	36.31789	208.97478	187.81409	43.24819	85.36018	237.68152	53.91210	124.09059	198.25470	677.94824	-93.89285	173.05536	594.79236	-96.56127	107.72827	615.03082	-167.79921	95.25818	517.02777	-158.29996	98.22888	495.14130	-39.02275	104.47260	353.07306	-93.93647	93.79364	245.41570	-103.25079	65.88983	103.44437	-71.32440	40.91364	95.61467	-157.63885	-16.66986	53.97014	-111.75459	176.40161	33.00696	-185.10153	189.32697	42.48258	-65.85091	231.11078	47.82638	-93.99545	
9	0.06667	143.37073	1475.19519	179.41713	103.77826	1478.57056	-187.87180	62.87292	1536.75146	-5.98486	182.62567	1007.36218	145.71916	184.60553	1002.91089	-126.85274	-0.20679	1039.18652	0.02542	197.81207	696.13043	111.66624	169.16522	598.42944	126.47551	99.87061	629.54132	186.12016	84.80054	518.42523	173.06831	104.67975	495.55356	60.93495	107.81012	353.64069	116.73851	94.28369	235.33762	124.58452	77.83008	109.28976	95.66914	39.11676	92.87669	178.70277	-9.62842	48.44364	132.70653	170.45154	36.31806	208.97459	187.81372	43.24858	85.36006	237.68018	53.91322	124.09071	198.23590	677.95361	-93.89919	173.00854	594.77490	-96.58933	107.70941	615.03302	-167.79987	95.24347	517.02924	-158.29987	98.22040	495.14221	-39.02298	104.46631	353.07419	-93.93764	93.78943	245.41679	-103.25195	65.88989	103.44447	-71.32477	40.91229	95.61446	-157.63821	-16.67023	53.96967	-111.75430	176.40167	33.00657	-185.10153	189.32684	42.48285	-65.85124	231.11090	47.82699	-93.99615	
10	0.07500	143.38013	1475.19836	179.43266	103.78992	1478.58960	-187.85614	62.87427	1536.75732	-5.97028	182.60797	1007.36029	145.71559	184.57928	1002.91132	-126.85143	-0.23102	1039.18738	0.02888	197.79730	696.13300	111.66518	169.15314	598.43005	126.47493	99.85846	629.54169	186.11925	84.79193	518.42572	173.06850	104.67230	495.55319	60.93471	107.80438	353.64032	116.73872	94.28070	235.33762	124.58498	77.82983	109.29026	95.67003	39.11591	92.87613	178.70360	-9.62866	48.44182	132.70702	170.45142	36.31823	208.97444	187.81329	43.24896	85.35991	237.67896	53.91433	124.09084	198.21735	677.95892	-93.90549	172.96173	594.75647	-96.61751	107.69080	615.03522	-167.80046	95.22894	517.03064	-158.29971	98.21216	495.14313	-39.02316	104.46021	353.07532	-93.93878	93.78534	245.41788	-103.25308	65.88989	103.44455	-71.32513	40.91113	95.61426	-157.63763	-16.67053	53.96923	-111.75398	176.40167	33.00618	-185.10153	189.32672	42.48310	-65.85158	231.11108	47.82757	-93.99685	
11	0.08333	143.38983	1475.20154	179.44823	103.80206	1478.60864	-187.84036	62.87616	1536.76331	-5.95564	182.59064	1007.35840	145.71208	184.55341	1002.91174	-126.85009	-0.25494	1039.18811	0.03242	197.78278	696.13550	111.66408	169.14136	598.43073	126.47435	99.84656	629.54199	186.11836	84.78351	518.42621	173.06871	104.66504	495.55280	60.93446	107.79877	353.63995	116.73897	94.27783	235.33759	124.58543	77.82959	109.29074	95.67091	39.11505	92.87556	178.70442	-9.62885	48.44001	132.70750	170.45135	36.31839	208.97429	187.81293	43.24935	85.35976	237.67761	53.91544	124.09099	198.19910	677.96423	-93.91177	172.91516	594.73718	-96.64566	107.67242	615.03741	-167.80099	95.21472	517.03204	-158.29955	98.20410	495.14404	-39.02332	104.45428	353.07642	-93.93988	93.78131	245.41895	-103.25419	65.88995	103.44463	-71.32547	40.91003	95.61406	-157.63710	-16.67084	53.96881	-111.75365	176.40173	33.00580	-185.10153	189.32660	42.48335	-65.85191	231.11133	47.82811	-93.99755	
